<svg xmlns="http://www.w3.org/2000/svg" width="246.276" height="79.12" viewBox="0 0 246.276 79.12">
  <g id="Group_3" data-name="Group 3" transform="translate(-124 -307)">
    <g id="Group_1" data-name="Group 1" transform="translate(124 322.333)">
      <text id="RiceLand" transform="translate(0 39.667)" fill="#07802b" font-size="37" font-family="SegoeUI-Semibold, Segoe UI" font-weight="600"><tspan x="0" y="0">RiceLand</tspan></text>
    </g>
    <g id="XMLID_1119_" transform="translate(277 297)">
      <g id="XMLID_53_" transform="translate(14 10)">
        <g id="XMLID_63_">
          <path id="XMLID_374_" d="M144.784,20.386a1.554,1.554,0,0,0-1.259-1.584,22.605,22.605,0,0,0-6.031-1.006,13.142,13.142,0,0,0,1.315-1.5,10.081,10.081,0,0,0,.62-11.639,2.29,2.29,0,0,0-2.165-.893c-5.458.531-10.308,2.979-12.975,6.547a11.452,11.452,0,0,0-1.275,2.153,17.311,17.311,0,0,0-6.042-3.715,2.629,2.629,0,0,0-2.439.318c-3.792,2.962-5.49,7.13-4.54,11.15l0,.017q-.916-.3-1.884-.519a2.491,2.491,0,0,0-2.334.615,12.078,12.078,0,0,0-1.77,2.52,2.667,2.667,0,0,0-.413-.08q-.82-.091-1.642-.122a10.653,10.653,0,0,0,3.394-9.775,1.886,1.886,0,0,0-1.751-1.3,23.006,23.006,0,0,0-9.966,1.083,9.573,9.573,0,0,0,.2-1.952c0-4.081-2.641-7.969-7.065-10.4a2.68,2.68,0,0,0-2.476,0c-4.424,2.431-7.065,6.319-7.065,10.4a9.574,9.574,0,0,0,.2,1.952,23.011,23.011,0,0,0-9.966-1.083,1.886,1.886,0,0,0-1.751,1.3,10.653,10.653,0,0,0,3.394,9.775q-.821.032-1.642.122a1.886,1.886,0,0,0-1.751,1.3,10.653,10.653,0,0,0,3.394,9.776q-.821.032-1.642.122a1.886,1.886,0,0,0-1.751,1.3,10.653,10.653,0,0,0,3.394,9.776q-.821.032-1.642.122a1.886,1.886,0,0,0-1.751,1.3,9.684,9.684,0,0,0,.033,4,2.094,2.094,0,0,0,2.387,1.279c1.135-.136,1.906-.93,1.722-1.773a7.4,7.4,0,0,1-.167-1.852A15.806,15.806,0,0,1,79.419,51,8.618,8.618,0,0,1,83.3,58.223a17.781,17.781,0,0,1-2.559-.132,2.1,2.1,0,0,0-2.4,1.27c-.189.842.577,1.638,1.711,1.779a23.425,23.425,0,0,0,2.879.177c.172,0,.343,0,.515-.007V77.574c0,.854.932,1.546,2.081,1.546s2.081-.692,2.081-1.546V61.309c.161,0,.322.007.483.007A21.321,21.321,0,0,0,99.754,58.01a22.7,22.7,0,0,0,7.98,1.424l.1,0a98.685,98.685,0,0,0-1.689,18.142c0,.854.932,1.546,2.081,1.546s2.081-.692,2.081-1.546a96.744,96.744,0,0,1,1.651-17.844,22.028,22.028,0,0,0,9.821,2.249q.749,0,1.5-.049c5.474-.357,10.459-2.65,13.335-6.135a1.248,1.248,0,0,0-.216-1.832,18.423,18.423,0,0,0-6.615-3.444,14.008,14.008,0,0,0,7.524-7.707,1.407,1.407,0,0,0-.933-1.7,20.269,20.269,0,0,0-2.754-1.009c3.713-1.936,6.32-4.911,7.149-8.269a1.471,1.471,0,0,0-1.09-1.651,20.745,20.745,0,0,0-2-.654c3.973-2.142,6.593-5.478,7.107-9.14ZM83.3,47.027a15.8,15.8,0,0,1-9.734-2.88,8.618,8.618,0,0,1-3.878-7.228,15.8,15.8,0,0,1,9.734,2.88A8.618,8.618,0,0,1,83.3,47.027Zm0-11.2a15.8,15.8,0,0,1-9.734-2.88,8.618,8.618,0,0,1-3.878-7.228A15.8,15.8,0,0,1,79.42,28.6,8.619,8.619,0,0,1,83.3,35.829Zm0-11.2a15.794,15.794,0,0,1-9.734-2.88,8.618,8.618,0,0,1-3.878-7.228,15.8,15.8,0,0,1,9.734,2.88A8.618,8.618,0,0,1,83.3,24.631Zm2.232-6.78A8.791,8.791,0,0,1,81.389,10.7,8.791,8.791,0,0,1,85.53,3.556,8.79,8.79,0,0,1,89.671,10.7,8.791,8.791,0,0,1,85.53,17.851ZM97.5,55.345a15.8,15.8,0,0,1-9.734,2.88A8.619,8.619,0,0,1,91.64,51a15.794,15.794,0,0,1,9.734-2.88A8.617,8.617,0,0,1,97.5,55.345Zm0-11.2a15.791,15.791,0,0,1-9.734,2.88A8.619,8.619,0,0,1,91.64,39.8a15.8,15.8,0,0,1,9.734-2.88A8.617,8.617,0,0,1,97.5,44.147Zm0-11.2a15.8,15.8,0,0,1-9.734,2.88A8.619,8.619,0,0,1,91.64,28.6a15.8,15.8,0,0,1,9.734-2.88A8.617,8.617,0,0,1,97.5,32.949Zm0-11.2a15.788,15.788,0,0,1-9.734,2.88A8.618,8.618,0,0,1,91.64,17.4a15.792,15.792,0,0,1,9.734-2.88A8.617,8.617,0,0,1,97.5,21.751Zm30.433-9.939a13.272,13.272,0,0,1,8.292-4.757,7.559,7.559,0,0,1-1.052,7.741,13.273,13.273,0,0,1-8.292,4.757A7.56,7.56,0,0,1,127.929,11.812Zm-11.42.3a10.082,10.082,0,0,1,5.741,6.509,7.916,7.916,0,0,1-2.416,7.571,10.082,10.082,0,0,1-5.741-6.509A7.915,7.915,0,0,1,116.509,12.113ZM107.3,56.338a17.484,17.484,0,0,1-4.71-.757,11.31,11.31,0,0,0,2.751-5.287A7.828,7.828,0,0,1,107.3,56.338Zm3.258-8.994a12.974,12.974,0,0,1-6.929-4.288,10.127,10.127,0,0,0,1.718-7.787,1.208,1.208,0,0,0-.048-.168,11.344,11.344,0,0,1,5.211,4.463A7.479,7.479,0,0,1,110.557,47.343Zm-2.818-16.569a7.445,7.445,0,0,1,.671-7.685,11.509,11.509,0,0,1,7.043,5.653,7.445,7.445,0,0,1-.671,7.685A11.51,11.51,0,0,1,107.739,30.774Zm24.406,24.39a14.835,14.835,0,0,1-9.227,3.687,16.223,16.223,0,0,1-9.95-2.438,14.836,14.836,0,0,1,9.227-3.687A16.221,16.221,0,0,1,132.145,55.164Zm-6.715-6.436a17.333,17.333,0,0,1-10.476-.154,11.91,11.91,0,0,1,7.355-5.542h0a17.33,17.33,0,0,1,10.476.154A11.911,11.911,0,0,1,125.431,48.728Zm4.042-10.385a17.312,17.312,0,0,1-10.466.385,11.238,11.238,0,0,1,6.821-5.906,17.308,17.308,0,0,1,10.465-.385A11.237,11.237,0,0,1,129.472,38.343ZM134.2,27.529a17.154,17.154,0,0,1-10.394.985c.8-2.636,3-4.884,6.184-6.281a17.157,17.157,0,0,1,10.394-.985c-.8,2.636-3,4.884-6.184,6.281Z" transform="translate(-65.52 0)" fill="#07802b"/>
        </g>
      </g>
    </g>
  </g>
</svg>
